# xmcd
#
# Track frame offsets:
#	150
#	15630
#	27887
#	42997
#	56985
#	76527
#	90480
#	107632
#	128907
#	143867
#	164375
#	175150
#	190557
#
# Disc length: 2984 seconds
# Revision: 3
# Processed by: cddbd v1.5.2PL0 Copyright (c) Steve Scherf et al.
# Submitted via: dBpowerAMP V12.0
#
DISCID=9d0ba60d
DTITLE=Freud Marx Engels and Jung - Hittihökkeli
DYEAR=1999
DGENRE=Country
TTITLE0=Viileää Viiniä (Ja Lämmin Kesäyö)
TTITLE1=Tämä Kala Pääsi Karkuun
TTITLE2=A-V-I-O-E-R-O
TTITLE3=Voipulla
TTITLE4=A and O (Aw-Ow-Oow-Wee)
TTITLE5=Pakko Päästä Kaupunkiin
TTITLE6=Kaipaus
TTITLE7=Pois Tältä Valtatieltä
TTITLE8=Julma Huhtikuu Zydeco
TTITLE9=Paikallinen
TTITLE10=Nuori Tampereen Ilves
TTITLE11=Heaven and Hell
TTITLE12=Valon Mä Näin
EXTD=
EXTT0=
EXTT1=
EXTT2=
EXTT3=
EXTT4=
EXTT5=
EXTT6=
EXTT7=
EXTT8=
EXTT9=
EXTT10=
EXTT11=
EXTT12=
PLAYORDER=
